<?xml version="1.0" encoding="iso-8859-1"?>
<!-- Generator: Adobe Illustrator 19.0.0, SVG Export Plug-In . SVG Version: 6.00 Build 0)  -->
<svg version="1.1" id="Capa_1" xmlns="http://www.w3.org/2000/svg" xmlns:xlink="http://www.w3.org/1999/xlink" x="0px" y="0px"
	 viewBox="0 0 51.071 51.071" style="enable-background:new 0 0 51.071 51.071;" xml:space="preserve">
<g>
	<g>
		<path d="M0,3.476v27.798c0,3.556,2.909,6.465,6.465,6.465h16.664c-1.568-2.139-2.442-4.729-2.442-7.434
			c0-6.951,5.655-12.606,12.606-12.606c6.951,0,12.606,5.655,12.606,12.606c0,2.685-0.876,5.289-2.447,7.434h1.154
			c3.556,0,6.465-2.909,6.465-6.465V3.476H0z M17.455,21.9H7.758v-3.232h9.697V21.9z M26.505,14.142H7.758V10.91h18.747V14.142z"/>
	</g>
</g>
<g>
	<g>
		<path d="M42.667,30.304c0-5.177-4.195-9.374-9.374-9.374c-5.179,0-9.374,4.197-9.374,9.374c0,2.874,1.296,5.442,3.331,7.161
			L24.275,45.3l3.71-0.665l2.333,2.96l3.007-7.919c0.096,0,0.189-0.011,0.284-0.014l3.013,7.933l2.333-2.96l3.71,0.665l-3.067-8.076
			C41.48,35.511,42.667,33.049,42.667,30.304z M33.293,34.506c-2.321,0-4.202-1.881-4.202-4.202c0-2.321,1.881-4.202,4.202-4.202
			c2.321,0,4.202,1.881,4.202,4.202C37.495,32.625,35.614,34.506,33.293,34.506z"/>
	</g>
</g>
<g>
</g>
<g>
</g>
<g>
</g>
<g>
</g>
<g>
</g>
<g>
</g>
<g>
</g>
<g>
</g>
<g>
</g>
<g>
</g>
<g>
</g>
<g>
</g>
<g>
</g>
<g>
</g>
<g>
</g>
</svg>
